<svg xmlns="http://www.w3.org/2000/svg" width="2000" height="1500" viewBox="0 0 2000 1500">
  <defs>
    <linearGradient id="sky" x1="0" y1="0" x2="0" y2="1">
      <stop offset="0" stop-color="#0b111c" />
      <stop offset="0.45" stop-color="#16202f" />
      <stop offset="0.78" stop-color="#33404e" />
      <stop offset="1" stop-color="#5a5344" />
    </linearGradient>
    <linearGradient id="glow" x1="0" y1="0" x2="0" y2="1">
      <stop offset="0" stop-color="#c8935a" stop-opacity="0" />
      <stop offset="1" stop-color="#c8935a" stop-opacity="0.35" />
    </linearGradient>
    <linearGradient id="castle" x1="0" y1="0" x2="0" y2="1">
      <stop offset="0" stop-color="#8f7347" />
      <stop offset="1" stop-color="#4a3b26" />
    </linearGradient>
    <linearGradient id="fog1" x1="0" y1="0" x2="0" y2="1">
      <stop offset="0" stop-color="#aab4bd" stop-opacity="0" />
      <stop offset="0.5" stop-color="#aab4bd" stop-opacity="0.22" />
      <stop offset="1" stop-color="#aab4bd" stop-opacity="0" />
    </linearGradient>
  </defs>

  <rect width="2000" height="1500" fill="url(#sky)" />
  <rect x="0" y="620" width="2000" height="380" fill="url(#glow)" />

  <circle cx="330" cy="240" r="2.2" fill="#e9ddc6" opacity="0.5" />
  <circle cx="520" cy="150" r="1.6" fill="#e9ddc6" opacity="0.4" />
  <circle cx="820" cy="300" r="1.8" fill="#e9ddc6" opacity="0.35" />
  <circle cx="1560" cy="180" r="2" fill="#e9ddc6" opacity="0.45" />
  <circle cx="1760" cy="330" r="1.5" fill="#e9ddc6" opacity="0.35" />

  <path d="M0 940 Q 260 850 520 905 T 1050 890 T 1560 900 T 2000 860 V 1500 H 0 Z" fill="#1d2735" />
  <rect x="0" y="880" width="2000" height="120" fill="url(#fog1)" />
  <path d="M0 1060 Q 320 970 640 1030 T 1280 1020 T 2000 1000 V 1500 H 0 Z" fill="#151d29" />
  <rect x="0" y="1010" width="2000" height="130" fill="url(#fog1)" opacity="0.8" />

  <g>
    <path d="M980 1120 Q 1240 940 1500 1030 L 1560 1090 Q 1300 1180 980 1180 Z" fill="#10151f" />
    <g transform="translate(1240,830)">
      <rect x="-190" y="70" width="380" height="150" fill="url(#castle)" />
      <path d="M-200 70 L-150 8 L150 8 L200 70 Z" fill="#3c3122" />
      <rect x="-24" y="-40" width="48" height="56" fill="#584732" />
      <path d="M-28 -40 Q 0 -92 28 -40 Z" fill="#2e2517" />
      <circle cx="0" cy="-78" r="4" fill="#d9a45b" />
      <g fill="#4f4029">
        <rect x="-232" y="30" width="52" height="190" />
        <rect x="180" y="30" width="52" height="190" />
      </g>
      <path d="M-238 32 Q -206 -34 -174 32 Z" fill="#2e2517" />
      <path d="M174 32 Q 206 -34 238 32 Z" fill="#2e2517" />
      <circle cx="-206" cy="-22" r="4" fill="#d9a45b" />
      <circle cx="206" cy="-22" r="4" fill="#d9a45b" />
      <g fill="#e0a95e" opacity="0.9">
        <rect x="-150" y="100" width="14" height="24" />
        <rect x="-110" y="100" width="14" height="24" />
        <rect x="-70" y="100" width="14" height="24" />
        <rect x="-30" y="100" width="14" height="24" />
        <rect x="16" y="100" width="14" height="24" />
        <rect x="56" y="100" width="14" height="24" />
        <rect x="96" y="100" width="14" height="24" />
        <rect x="136" y="100" width="14" height="24" />
        <rect x="-150" y="150" width="14" height="24" opacity="0.7" />
        <rect x="-70" y="150" width="14" height="24" opacity="0.7" />
        <rect x="16" y="150" width="14" height="24" opacity="0.7" />
        <rect x="96" y="150" width="14" height="24" opacity="0.7" />
        <rect x="-214" y="90" width="12" height="20" opacity="0.8" />
        <rect x="198" y="90" width="12" height="20" opacity="0.8" />
      </g>
    </g>
  </g>

  <rect x="0" y="1130" width="2000" height="110" fill="url(#fog1)" opacity="0.9" />

  <path d="M0 1500 V 1240 Q 120 1200 220 1240 T 460 1235 T 700 1250 T 960 1240 T 1240 1255 T 1520 1240 T 1780 1250 T 2000 1235 V 1500 Z" fill="#0a0f16" />
  <g fill="#0a0f16">
    <path d="M120 1240 l 26 -70 l 26 70 Z" />
    <path d="M180 1250 l 22 -56 l 22 56 Z" />
    <path d="M420 1245 l 24 -62 l 24 62 Z" />
    <path d="M1660 1248 l 26 -66 l 26 66 Z" />
    <path d="M1730 1255 l 20 -50 l 20 50 Z" />
  </g>

  <text x="50%" y="1408" text-anchor="middle" font-family="Georgia, 'Times New Roman', serif" font-size="42" fill="#e9ddc6" opacity="0.55">Schloss Montabaur über dem abendlichen Westerwald</text>
  <text x="50%" y="1452" text-anchor="middle" font-family="Arial, sans-serif" font-size="20" letter-spacing="4" fill="#a3823f">MUSTERFOTO &#183; PLATZHALTERBILD</text>
</svg>